<?xml version="1.0" standalone="no"?>
<!DOCTYPE svg PUBLIC "-//W3C//DTD SVG 20010904//EN"
 "http://www.w3.org/TR/2001/REC-SVG-20010904/DTD/svg10.dtd">
<svg version="1.0" xmlns="http://www.w3.org/2000/svg"
 width="300.000000pt" height="300.000000pt" viewBox="0 0 300.000000 300.000000"
 preserveAspectRatio="xMidYMid meet">
<metadata>
Created by potrace 1.11, written by Peter Selinger 2001-2013
</metadata>
<g transform="translate(0.000000,300.000000) scale(0.100000,-0.100000)"
fill="#000000" stroke="none">
<path d="M1136 2706 c5 -21 3 -24 -14 -20 -12 4 -30 -4 -48 -20 -24 -22 -27
-27 -14 -36 24 -16 55 -12 75 10 19 21 19 21 37 -12 22 -42 22 -47 0 -41 -18
4 -72 -31 -72 -47 0 -4 12 -11 27 -15 19 -4 34 0 54 14 l27 20 6 -22 c3 -12 6
-40 6 -62 0 -39 -1 -39 -13 -15 -13 25 -61 49 -74 37 -15 -16 13 -62 44 -72
28 -9 30 -13 20 -32 -11 -19 -14 -20 -31 -7 -23 16 -54 18 -76 4 -23 -14 15
-50 55 -50 29 0 31 -2 27 -30 -5 -33 -13 -37 -32 -15 -15 19 -70 20 -70 2 0
-23 40 -57 65 -57 23 0 25 -4 25 -42 l-1 -43 -40 45 c-48 53 -59 77 -60 133
-1 23 -3 34 -6 25 -3 -13 -14 -18 -37 -18 -35 0 -73 -31 -61 -49 10 -17 56
-13 77 6 16 14 18 14 18 0 0 -8 3 -22 6 -31 5 -13 -1 -16 -29 -16 -20 0 -45
-8 -58 -20 -28 -22 -14 -27 15 -5 11 8 33 15 50 15 26 0 28 -1 13 -12 -15 -12
-14 -13 13 -14 47 -2 58 -19 32 -47 -21 -22 -32 -87 -14 -87 18 0 52 33 52 51
0 30 13 23 38 -21 l23 -40 -26 0 c-24 0 -65 -31 -65 -49 0 -5 12 -12 27 -16
19 -4 34 0 54 14 l27 20 11 -31 c12 -34 14 -78 5 -102 -5 -12 -13 -8 -39 19
-53 52 -120 95 -186 117 -56 19 -59 21 -45 37 17 18 20 48 10 76 -10 25 -54
-21 -54 -57 0 -24 -4 -28 -29 -28 -23 0 -28 4 -24 19 3 11 -6 30 -21 47 -22
24 -27 27 -36 14 -15 -22 -12 -51 7 -72 9 -10 12 -18 7 -18 -5 0 -26 -4 -47
-9 -37 -9 -39 -8 -49 20 -13 38 -71 57 -76 25 -3 -12 6 -29 22 -42 21 -19 23
-23 9 -28 -15 -6 -32 8 -33 27 0 12 -48 27 -65 21 -21 -8 -19 -24 5 -49 l21
-22 -31 -13 c-29 -12 -33 -11 -59 14 -27 26 -65 34 -75 17 -8 -12 32 -61 51
-61 11 0 13 -5 7 -17 -11 -26 -8 -63 6 -77 14 -14 54 30 47 53 -3 9 -6 23 -8
31 -3 10 19 22 73 41 57 21 76 24 71 13 -3 -8 -9 -14 -14 -14 -4 0 -20 -20
-34 -44 -24 -42 -25 -47 -11 -74 31 -59 66 -66 66 -12 0 19 -9 35 -26 49 -28
22 -27 25 20 83 33 40 53 50 36 18 -11 -20 -4 -70 9 -70 4 0 18 10 30 21 16
16 22 30 19 50 -4 26 -1 29 27 35 17 3 46 4 63 2 32 -3 32 -3 16 -27 -9 -13
-46 -37 -81 -53 -49 -22 -67 -36 -77 -60 -13 -29 -12 -33 16 -60 31 -31 78
-38 78 -13 0 20 -45 65 -65 65 -22 0 -19 16 7 34 31 22 38 20 38 -8 0 -15 11
-33 27 -46 l28 -21 8 26 c7 21 5 33 -11 54 -20 27 -20 28 -1 40 22 13 39 7 39
-13 0 -8 11 -21 25 -30 24 -16 25 -15 31 10 7 27 -9 74 -26 74 -5 0 -10 7 -10
15 0 18 16 19 58 4 30 -10 30 -11 14 -39 -14 -24 -14 -32 -3 -56 l13 -29 23
27 c16 18 21 34 17 53 l-5 27 31 -16 31 -16 -30 -29 c-28 -29 -39 -71 -18 -71
23 0 51 23 63 51 l13 30 44 -39 c44 -40 44 -40 44 -108 1 -38 5 -78 10 -88 8
-18 5 -18 -26 4 -19 13 -36 25 -38 27 -3 2 6 14 18 27 23 24 26 66 6 73 -18 6
-55 -36 -55 -61 0 -19 -4 -23 -20 -19 -19 5 -19 7 -5 23 19 21 20 80 2 80 -22
0 -47 -34 -47 -63 0 -26 -2 -27 -57 -27 -49 1 -55 2 -38 12 26 15 35 28 35 56
0 13 -6 22 -15 22 -19 0 -65 -44 -65 -62 0 -8 -13 -13 -32 -14 -33 -1 -68 -33
-68 -61 0 -33 78 0 92 38 2 4 18 4 37 1 30 -7 32 -9 17 -21 -24 -20 -21 -71 3
-71 24 0 51 36 51 67 0 27 33 31 64 8 16 -12 18 -20 10 -42 -11 -32 -44 -44
-44 -17 0 10 7 26 17 36 9 10 11 18 5 18 -15 0 -32 -33 -32 -64 0 -31 9 -32
44 -5 15 12 26 30 26 45 0 30 4 30 65 -5 58 -33 68 -44 83 -86 5 -16 78 -205
161 -420 151 -390 178 -479 165 -538 -10 -48 -40 -103 -70 -126 -23 -18 -40
-21 -116 -21 -90 0 -130 -11 -157 -44 -16 -19 -59 -20 -113 -4 -34 10 -41 9
-56 -7 -16 -18 -16 -18 1 -5 14 10 25 11 56 1 21 -6 50 -11 65 -11 31 0 32 -3
5 -46 -16 -27 -27 -34 -53 -34 -18 0 -38 6 -46 12 -12 11 -12 10 -2 -3 18 -24
47 -29 78 -13 34 18 32 19 37 -14 2 -16 5 -8 6 21 3 97 47 137 151 137 66 0
76 -9 30 -27 -16 -6 -38 -26 -47 -43 -10 -18 -28 -48 -40 -67 -27 -39 -31 -59
-6 -23 l17 24 12 -44 13 -45 -6 50 c-3 36 0 62 12 90 l18 40 8 -42 c4 -23 13
-52 20 -65 7 -13 16 -41 20 -63 6 -39 7 -39 8 -7 0 18 -9 56 -21 84 -29 69
-19 94 51 125 l54 24 -5 -51 c-3 -30 -2 -46 3 -38 5 7 9 30 9 50 0 20 4 40 10
43 6 3 10 -4 10 -17 0 -13 4 -30 9 -37 6 -10 8 0 4 27 -5 34 0 56 26 111 37
81 48 152 32 215 -6 25 -74 205 -151 401 -77 196 -140 362 -140 369 0 7 18 20
40 29 l40 15 0 -27 c0 -28 26 -61 48 -61 7 0 12 15 12 34 0 24 -7 38 -22 48
l-22 15 29 15 c28 15 29 15 44 -15 9 -17 26 -34 39 -38 20 -8 22 -5 22 26 0
24 -7 39 -22 49 l-22 16 22 23 c31 33 29 80 -5 107 -26 20 -28 20 -34 3 -13
-31 -10 -43 16 -69 l25 -25 -22 -19 c-23 -19 -23 -19 -35 9 -7 17 -25 33 -43
39 -28 10 -30 9 -30 -14 0 -14 11 -36 24 -49 l24 -24 -24 -15 c-28 -19 -41
-20 -47 -3 -3 7 -6 5 -6 -5 -1 -18 -29 -38 -53 -38 -8 0 -22 24 -33 53 -10 28
-29 62 -43 75 -20 19 -23 29 -17 60 8 45 26 80 61 122 l27 32 13 -31 c11 -27
56 -52 69 -39 11 10 -14 64 -34 74 -19 10 -20 12 -6 18 9 3 32 6 51 6 31 0 34
-3 34 -30 0 -37 45 -73 61 -49 13 21 11 34 -13 64 -12 16 -24 38 -25 49 -7 48
-14 66 -34 77 -11 6 -23 8 -25 6 -13 -12 -5 -69 11 -87 18 -20 17 -20 -21 -20
-45 0 -95 -27 -121 -66 l-18 -28 -6 40 c-5 28 -2 50 11 79 l18 40 1 -30 c1
-16 5 -37 11 -45 7 -12 12 -11 30 5 17 16 21 28 17 57 -5 35 -3 37 27 44 25 5
27 8 13 13 -18 7 -18 8 2 31 11 14 20 20 21 13 0 -21 31 -43 61 -43 16 0 29 4
29 9 0 17 -42 61 -58 61 -25 0 -1 17 36 25 27 6 32 4 32 -13 0 -25 31 -52 58
-52 26 0 25 -2 11 38 -13 38 -54 57 -93 42 -40 -15 -46 -13 -46 14 0 15 -11
33 -27 46 l-28 22 -3 -32 c-2 -23 3 -39 16 -53 20 -19 20 -20 -15 -66 -19 -25
-50 -54 -68 -63 -33 -17 -33 -17 -38 7 -4 22 -1 25 28 25 31 0 65 25 65 48 0
13 -47 16 -74 6 -9 -3 -16 -11 -16 -17 0 -7 4 -7 12 1 7 7 25 12 42 12 29 0
29 0 11 -20 -23 -26 -57 -22 -70 8 -5 12 -13 22 -17 22 -7 0 -5 -25 7 -82 1
-10 -2 -36 -7 -58 l-11 -41 -29 51 c-26 45 -29 59 -26 123 3 71 3 72 38 89 47
23 50 22 50 -9 0 -14 7 -35 16 -45 16 -17 18 -17 30 0 16 20 18 68 4 77 -22
13 4 25 58 27 l57 1 -60 6 -60 6 51 22 c28 12 81 25 117 29 l67 7 0 -36 c0
-33 26 -67 52 -67 14 0 8 63 -7 81 -15 15 -13 16 27 14 24 -1 33 -1 20 2 l-23
4 22 17 c15 13 20 26 17 49 -3 31 -4 32 -28 20 -14 -7 -29 -26 -35 -45 -9 -31
-10 -32 -69 -32 l-60 0 33 34 c18 19 48 42 67 52 19 10 34 22 34 27 0 4 -9 3
-20 -3 -14 -7 -20 -7 -20 0 0 5 -9 19 -20 30 -22 22 -70 27 -70 7 0 -23 31
-57 53 -57 19 0 17 -3 -13 -29 -34 -28 -35 -28 -45 -7 -11 21 -60 45 -71 33
-15 -15 8 -59 39 -72 34 -14 34 -14 -39 -34 -23 -6 -62 -27 -88 -47 -45 -35
-102 -61 -112 -52 -2 3 0 17 6 32 9 24 14 27 39 21 22 -5 35 0 57 18 l27 24
-32 11 c-17 6 -39 8 -48 5 -15 -6 -14 -1 4 27 26 41 43 49 43 21 0 -17 43 -51
65 -51 16 0 1 54 -20 76 l-25 25 22 19 c13 11 18 19 11 20 -7 0 -23 11 -37 25
-21 21 -76 36 -76 20 0 -19 27 -56 46 -62 l22 -8 -29 -35 -29 -34 0 36 c0 20
-9 57 -20 83 -17 40 -18 50 -7 72 l14 25 16 -26 c13 -20 26 -26 51 -26 30 0
33 3 29 21 -3 12 -20 30 -37 40 -21 13 -25 19 -13 19 9 0 17 4 17 9 0 19 -41
-2 -70 -36 l-31 -34 -20 45 c-22 50 -33 60 -23 22z m-96 -380 c0 -12 -34 -36
-51 -36 -21 0 -26 25 -6 33 15 7 57 8 57 3z m265 -26 c7 -23 -2 -60 -15 -60
-13 0 -22 37 -15 60 3 11 10 20 15 20 5 0 12 -9 15 -20z m105 -35 c0 -14 -4
-25 -8 -25 -16 0 -32 24 -32 47 0 21 3 22 20 13 12 -6 20 -21 20 -35z m-270
14 c7 -11 9 -23 7 -26 -10 -9 -47 8 -57 28 -9 16 -7 19 14 19 15 0 30 -8 36
-21z m398 -51 c14 -14 16 -48 3 -48 -15 0 -41 30 -41 46 0 17 22 18 38 2z
m-94 -44 c21 -21 20 -34 -2 -34 -21 0 -42 18 -42 37 0 18 25 16 44 -3z m-343
-78 l-21 -20 0 26 c0 15 8 34 18 44 16 17 17 17 20 -5 2 -14 -5 -32 -17 -45z
m339 -30 c0 -20 -12 -27 -27 -15 -7 6 -13 26 -13 43 l1 31 19 -24 c11 -13 20
-29 20 -35z m-120 0 c0 -25 -22 -51 -33 -39 -11 10 -8 38 5 51 18 18 28 14 28
-12z m-340 -216 c0 -19 -46 -58 -56 -47 -17 16 16 57 54 66 1 1 2 -8 2 -19z
m120 -3 c0 -13 -9 -32 -20 -42 -20 -18 -20 -17 -20 11 0 29 15 54 32 54 4 0 8
-11 8 -23z m414 -13 c9 -8 16 -27 16 -40 0 -21 -3 -23 -19 -14 -22 11 -36 44
-26 60 8 13 11 13 29 -6z m-334 -9 c0 -8 -10 -25 -22 -37 l-23 -23 -3 23 c-4
26 13 52 34 52 8 0 14 -7 14 -15z m-292 -42 c-3 -19 -53 -51 -63 -42 -10 11 7
40 29 49 32 13 38 12 34 -7z m556 -25 c9 -12 16 -26 16 -30 0 -14 -28 -9 -44
8 -9 8 -16 22 -16 30 0 22 27 17 44 -8z m-444 -5 c0 -18 -28 -53 -42 -53 -14
0 -9 38 8 54 20 21 34 20 34 -1z m512 -60 c19 -17 25 -53 9 -53 -16 0 -41 31
-41 51 0 23 8 24 32 2z m-72 -90 c0 -12 -4 -23 -8 -23 -17 0 -32 25 -32 54 0
28 0 29 20 11 11 -10 20 -29 20 -42z"/>
<path d="M2216 2684 l-19 -46 -23 30 c-24 30 -84 60 -84 41 0 -5 7 -9 16 -9
10 0 5 -9 -15 -26 -40 -33 -40 -54 -2 -54 20 0 36 9 50 26 l20 26 12 -26 c10
-21 8 -34 -10 -77 -11 -28 -21 -63 -21 -77 l0 -26 -31 30 c-28 27 -29 29 -10
32 22 4 51 37 51 59 0 20 -48 15 -70 -7 -11 -11 -20 -24 -20 -30 0 -5 -8 -7
-17 -4 -10 3 -5 -4 10 -16 l28 -23 -23 -11 c-17 -8 -24 -22 -26 -48 -3 -33 -1
-36 18 -31 12 3 30 19 40 35 l18 29 21 -29 c25 -35 27 -46 6 -38 -23 8 -66
-11 -59 -27 8 -21 46 -36 77 -30 22 4 27 1 33 -21 3 -15 4 -30 1 -33 -9 -9
-63 16 -103 48 -30 24 -80 47 -143 66 -10 2 -5 10 16 22 39 24 51 71 19 71
-25 0 -49 -17 -63 -43 -8 -16 -12 -14 -38 13 -21 22 -25 30 -13 30 16 0 58 44
58 61 0 5 -13 9 -29 9 -20 0 -37 -9 -54 -29 -18 -22 -27 -27 -36 -18 -6 6 -13
8 -16 5 -3 -3 9 -15 27 -26 18 -11 49 -37 67 -56 l35 -36 -62 0 c-58 0 -62 2
-62 23 0 28 -9 41 -37 56 -31 16 -33 14 -33 -17 0 -17 9 -37 21 -48 l21 -19
-24 -7 c-15 -5 -9 -6 19 -4 l42 4 -16 -24 c-15 -24 -12 -74 5 -74 5 0 19 11
32 24 16 18 21 33 17 52 l-5 27 62 -6 c74 -8 125 -22 151 -42 18 -13 15 -15
-40 -16 l-60 -2 60 -6 c53 -5 60 -8 57 -26 -7 -41 -4 -68 12 -83 14 -14 17
-13 30 18 7 19 11 40 8 48 -4 11 0 13 19 7 68 -21 67 -20 74 -89 7 -59 5 -70
-21 -120 -15 -31 -31 -56 -35 -56 -13 0 -21 61 -15 119 3 31 2 48 -2 38 -7
-17 -9 -17 -21 -3 -15 17 -76 22 -86 6 -10 -16 33 -50 65 -50 25 0 30 -4 30
-25 0 -14 -2 -25 -5 -25 -19 0 -86 55 -105 85 -14 23 -28 34 -37 31 -8 -3 -19
-6 -24 -6 -14 0 -49 -39 -49 -55 0 -26 57 -19 76 10 15 24 17 24 30 8 18 -24
17 -33 -3 -34 -10 -1 -3 -6 15 -12 30 -9 32 -13 27 -39 -7 -30 15 -78 35 -78
19 0 31 49 18 73 -10 20 -10 21 5 8 27 -22 41 -81 29 -124 -8 -30 -7 -43 9
-74 24 -48 24 -95 0 -117 -10 -9 -27 -38 -36 -64 -22 -59 -28 -66 -55 -57 -20
6 -20 8 -6 24 18 19 22 91 6 91 -19 0 -50 -40 -50 -65 0 -30 -2 -30 -42 -9
-29 15 -30 17 -12 27 26 14 34 27 34 59 0 22 -4 26 -17 21 -29 -10 -53 -35
-53 -55 0 -24 -12 -23 -35 2 -18 20 -18 21 3 43 26 27 30 77 7 77 -8 0 -24 -9
-36 -21 -24 -24 -21 -70 8 -101 15 -17 15 -20 -5 -39 -22 -19 -31 -79 -13 -79
18 0 61 42 61 61 0 24 1 24 44 -2 41 -24 47 -56 18 -82 -25 -23 -32 -21 -32 7
0 14 10 32 22 40 12 9 18 16 12 16 -31 0 -59 -70 -34 -85 18 -11 51 16 57 46
3 16 8 29 11 29 15 0 72 -25 72 -32 0 -4 -63 -168 -141 -365 -77 -197 -147
-383 -155 -414 -17 -67 -11 -106 36 -222 20 -49 29 -86 25 -104 l-5 -28 14 29
14 30 7 -51 c3 -28 13 -60 21 -70 14 -17 15 -17 6 2 -16 34 -21 105 -9 104 7
0 32 -10 57 -22 55 -27 60 -51 32 -135 -12 -33 -18 -71 -15 -90 8 -53 18 -44
15 13 -3 34 2 63 12 83 9 17 16 48 16 69 l0 38 21 -25 c18 -22 20 -35 15 -110
-4 -56 -2 -80 4 -70 5 8 10 37 10 64 0 49 0 49 21 30 15 -13 11 -2 -13 41 -23
41 -46 67 -73 82 l-38 21 46 7 c104 16 172 -36 172 -130 0 -29 3 -48 7 -42 4
7 8 20 8 30 0 17 2 17 22 3 30 -21 51 -20 79 5 l24 20 -27 -17 c-37 -22 -74
-12 -93 26 -20 38 -19 40 8 40 12 1 36 8 52 16 17 8 21 12 10 8 -60 -18 -81
-16 -113 11 -42 35 -83 46 -175 43 -89 -2 -110 11 -148 91 -18 38 -20 58 -16
116 4 60 28 129 171 499 92 236 172 436 179 445 13 16 97 71 108 71 4 0 10
-14 14 -30 8 -35 61 -71 71 -47 7 19 -13 66 -32 74 -21 8 1 23 34 23 17 0 22
-6 22 -27 0 -34 8 -46 38 -62 20 -11 22 -10 22 18 0 37 -9 61 -23 61 -7 0 -7
-4 1 -12 13 -13 16 -58 4 -58 -35 0 -44 67 -9 74 51 12 63 9 89 -17 32 -32 68
-36 68 -8 0 35 -61 74 -88 57 -5 -3 -12 7 -15 22 -8 41 -77 71 -77 34 0 -26
28 -62 48 -61 13 0 12 2 -5 9 -21 9 -40 46 -29 57 3 3 17 -2 31 -11 18 -12 25
-24 23 -39 -3 -20 -10 -22 -64 -25 -61 -3 -61 -3 -57 22 6 32 -43 88 -58 65
-15 -24 -10 -55 14 -75 22 -19 22 -19 5 2 -19 21 -25 64 -10 64 14 0 42 -35
42 -52 0 -18 -16 -33 -45 -42 -16 -5 -20 -1 -22 21 -1 25 -34 63 -54 63 -5 0
-9 -15 -9 -34 0 -24 7 -39 21 -49 20 -15 20 -15 -9 -36 -17 -11 -32 -21 -34
-21 -1 0 -2 34 -1 76 2 76 2 77 44 120 50 50 59 54 59 20 0 -25 32 -56 57 -56
8 0 13 12 13 30 0 23 -7 35 -32 50 -18 11 -36 20 -39 20 -4 0 -30 -21 -58 -46
-29 -26 -55 -43 -59 -40 -10 11 -6 78 6 109 l12 28 29 -22 c23 -17 35 -19 56
-12 l26 8 -21 28 c-13 16 -31 27 -46 27 -29 0 -30 4 -2 48 l22 36 8 -25 c8
-25 45 -55 56 -45 15 16 4 69 -18 86 l-23 17 26 18 c16 10 35 14 49 10 22 -6
22 -6 4 9 -19 15 -19 16 7 16 15 0 40 -8 55 -17 l27 -17 -19 21 c-11 14 -32
23 -56 25 -35 3 -37 5 -28 27 6 19 11 22 20 13 14 -14 74 -16 82 -4 12 20 -25
52 -60 52 -19 0 -34 5 -34 10 0 6 -4 10 -9 10 -5 0 -7 -9 -4 -20 8 -30 -22
-99 -62 -144 l-35 -39 0 40 c0 37 3 41 30 46 19 4 35 17 45 37 l16 30 -34 0
c-32 0 -57 -14 -57 -34 0 -5 8 -2 18 7 20 18 52 23 52 9 0 -14 -35 -42 -53
-42 -10 0 -20 14 -26 38 -15 51 -15 52 17 52 37 0 74 36 52 50 -23 15 -56 12
-71 -6 -12 -14 -14 -14 -26 2 -18 24 -16 34 5 34 22 0 47 25 56 58 10 32 -24
29 -65 -5 l-32 -28 6 50 c6 44 27 88 27 57 0 -18 39 -34 66 -28 13 4 24 13 24
21 0 20 -46 48 -70 42 -19 -5 -19 -4 -3 27 8 17 17 32 18 34 2 2 15 -4 29 -13
25 -17 76 -14 76 3 0 22 -30 45 -58 45 -28 0 -31 3 -26 24 10 37 1 27 -20 -23z
m182 -366 c18 -18 14 -28 -11 -28 -23 0 -47 17 -47 32 0 12 45 9 58 -4z m-298
-38 c0 -36 -16 -47 -30 -20 -8 14 -8 26 0 40 14 27 30 16 30 -20z m-120 -87
c0 -14 -34 -43 -52 -43 -25 0 -23 16 4 34 23 16 48 21 48 9z m118 -5 c18 -18
14 -28 -11 -28 -23 0 -47 17 -47 32 0 12 45 9 58 -4z m180 -30 c13 -13 16 -58
4 -58 -15 0 -32 24 -32 47 0 25 10 29 28 11z m-190 -109 l-3 -34 -17 25 c-22
32 -14 80 9 57 9 -8 13 -28 11 -48z m-198 -212 c0 -25 -17 -47 -37 -47 -18 0
-16 21 3 48 20 28 34 28 34 -1z m351 -15 c13 -33 -3 -49 -25 -27 -22 22 -22
67 0 58 8 -3 20 -17 25 -31z m287 -28 c25 -17 29 -44 7 -44 -17 0 -55 35 -55
50 0 15 22 12 48 -6z m-558 -22 c0 -21 -18 -42 -37 -42 -16 0 -17 32 -1 48 18
18 38 15 38 -6z m342 -14 c9 -7 19 -23 23 -35 9 -31 -18 -31 -39 -1 -28 39
-17 62 16 36z m-273 -64 c-6 -8 -15 -14 -20 -14 -16 0 -10 43 9 63 17 19 17
19 20 -7 2 -15 -2 -34 -9 -42z m-171 -37 c-23 -19 -23 -19 -26 4 -3 15 4 30
20 42 23 19 23 19 26 -4 3 -15 -4 -30 -20 -42z"/>
<path d="M1466 2363 c-14 -14 -4 -45 24 -75 37 -39 54 -29 40 23 -10 34 -50
66 -64 52z"/>
<path d="M1867 2348 c-31 -29 -44 -76 -22 -84 12 -5 10 -10 -10 -26 -28 -22
-35 -68 -9 -68 27 0 52 19 58 45 5 20 11 25 26 21 11 -3 28 -8 38 -11 26 -7
72 38 72 70 0 18 -5 25 -18 25 -25 0 -52 -31 -52 -58 0 -25 -5 -26 -49 -11
-37 13 -37 13 -11 39 20 20 28 80 11 80 -6 0 -21 -10 -34 -22z m143 -51 c0
-17 -29 -57 -41 -57 -15 0 -10 37 7 54 19 19 34 21 34 3z m-137 -74 c-6 -19
-32 -43 -45 -43 -14 0 -9 28 8 44 21 22 45 21 37 -1z"/>
<path d="M2404 2135 c-4 -16 0 -34 10 -49 15 -24 15 -25 -22 -37 -50 -16 -115
-49 -109 -55 3 -3 19 2 36 10 l31 16 -6 -28 c-7 -36 29 -86 46 -62 15 22 12
61 -6 81 -14 16 -13 18 21 29 20 6 43 9 51 6 13 -5 11 -11 -10 -37 -14 -17
-26 -34 -26 -39 0 -19 13 -40 25 -40 17 0 45 33 45 53 0 15 3 15 29 -1 30 -17
30 -17 10 -38 -18 -19 -26 -64 -13 -77 14 -14 54 26 54 54 0 36 19 37 50 4
l23 -25 -21 0 c-27 0 -62 -34 -62 -60 0 -30 35 -25 72 11 31 29 32 32 18 57
-9 15 -38 38 -67 52 -52 26 -103 66 -103 82 0 10 91 10 106 0 7 -4 12 -20 12
-35 -1 -32 34 -73 51 -63 15 9 14 59 -1 74 -7 7 -8 12 -2 12 10 0 59 -55 78
-88 5 -8 -1 -20 -15 -31 -21 -17 -32 -72 -17 -87 11 -11 48 17 54 40 l6 24 36
-20 37 -20 -33 27 c-18 15 -40 41 -48 58 -9 18 -26 42 -37 55 -26 28 -13 28
68 0 62 -22 63 -23 58 -54 -5 -32 10 -74 28 -74 19 0 33 48 21 75 -10 22 -9
25 8 25 19 0 50 35 50 57 0 22 -50 14 -76 -12 -23 -23 -29 -25 -59 -15 l-33
11 24 24 c28 28 30 41 9 49 -22 8 -47 -3 -71 -31 -17 -20 -25 -23 -39 -15 -17
9 -17 10 3 16 19 6 46 58 36 69 -13 13 -61 -12 -74 -39 -8 -16 -15 -30 -15
-31 -1 -1 -22 4 -49 10 -42 11 -46 14 -32 26 18 15 22 66 5 76 -17 11 -49 -26
-49 -57 0 -24 -4 -28 -29 -28 -26 0 -30 3 -29 30 2 54 -46 83 -58 35z"/>
<path d="M1947 2122 c-10 -10 -17 -31 -17 -45 0 -15 -5 -27 -11 -27 -5 0 -7
-5 -4 -11 4 -6 -2 -17 -14 -25 -25 -18 -30 -84 -7 -84 21 0 58 51 53 72 -4 15
1 18 31 18 21 0 44 -5 52 -10 9 -6 10 -10 3 -10 -20 0 -43 -30 -43 -56 0 -15
6 -24 15 -24 19 0 65 44 65 62 0 7 11 0 25 -17 13 -16 24 -25 25 -19 0 7 -18
28 -40 48 -34 31 -47 36 -87 36 l-46 0 21 23 c22 24 27 43 16 71 -8 21 -17 20
-37 -2z m29 -16 c6 -17 -12 -56 -26 -56 -11 0 -14 53 -3 63 11 11 23 8 29 -7z"/>
<path d="M570 1870 c-14 -11 -20 -20 -14 -20 7 0 22 9 35 20 31 25 12 26 -21
0z"/>
<path d="M1316 1754 c-11 -29 -6 -51 17 -70 22 -19 22 -19 5 2 -22 26 -24 64
-3 64 9 0 20 -10 25 -22 6 -15 9 -17 9 -7 1 15 -28 49 -41 49 -3 0 -9 -7 -12
-16z"/>
<path d="M60 1250 l0 -410 108 0 c178 0 278 33 363 121 219 225 110 615 -190
683 -40 9 -115 16 -175 16 l-106 0 0 -410z m332 328 c268 -123 275 -520 11
-650 -60 -29 -75 -32 -184 -36 l-119 -4 0 362 0 362 118 -4 c99 -3 125 -8 174
-30z"/>
<path d="M750 1250 l0 -410 205 0 205 0 0 25 0 25 -180 0 -180 0 0 170 0 170
180 0 c173 0 180 1 180 20 0 19 -7 20 -180 20 l-180 0 0 170 0 170 180 0 180
0 0 25 0 25 -205 0 -205 0 0 -410z"/>
<path d="M2331 1638 c-4 -13 -26 -72 -49 -133 -76 -205 -242 -658 -242 -662 0
-1 11 -3 23 -3 22 0 30 16 89 178 l65 177 144 3 144 2 65 -180 c58 -160 67
-180 88 -180 12 0 22 3 22 6 0 3 -66 187 -147 410 -136 375 -149 404 -170 404
-15 0 -26 -8 -32 -22z m97 -225 l59 -163 -123 0 c-68 0 -124 1 -124 3 0 3 90
250 109 301 7 16 13 27 15 25 2 -2 31 -77 64 -166z"/>
<path d="M2280 506 c0 -3 9 -10 20 -16 11 -6 20 -8 20 -6 0 3 -9 10 -20 16
-11 6 -20 8 -20 6z"/>
<path d="M2101 324 c0 -11 3 -14 6 -6 3 7 2 16 -1 19 -3 4 -6 -2 -5 -13z"/>
<path d="M1256 299 c-8 -42 0 -50 9 -9 4 17 5 34 2 36 -2 3 -7 -10 -11 -27z"/>
<path d="M2112 280 c0 -14 2 -19 5 -12 2 6 2 18 0 25 -3 6 -5 1 -5 -13z"/>
</g>
</svg>
